<svg width="21" height="20" viewBox="0 0 21 20" fill="none" xmlns="http://www.w3.org/2000/svg">
<g clip-path="url(#clip0_627_28)">
<path d="M20.2616 10.1871C20.2616 9.36773 20.1951 8.7698 20.0512 8.14972H10.6946V11.848H16.1867C16.076 12.7671 15.4781 14.1512 14.1493 15.0813L14.1307 15.2051L17.0891 17.497L17.294 17.5174C19.1764 15.779 20.2616 13.2211 20.2616 10.1871Z" fill="#4285F4"/>
<path d="M10.6945 19.9313C13.3852 19.9313 15.6441 19.0455 17.294 17.5174L14.1493 15.0813C13.3077 15.6682 12.1783 16.0779 10.6945 16.0779C8.0592 16.0779 5.82248 14.3395 5.02515 11.9367L4.90828 11.9466L1.8321 14.3273L1.79187 14.4391C3.43065 17.6945 6.79683 19.9313 10.6945 19.9313Z" fill="#34A853"/>
<path d="M5.02526 11.9367C4.81488 11.3166 4.69313 10.6522 4.69313 9.96568C4.69313 9.27912 4.81488 8.61476 5.01419 7.99469L5.00862 7.86263L1.89389 5.4437L1.79198 5.49217C1.11656 6.84308 0.729004 8.36011 0.729004 9.96568C0.729004 11.5713 1.11656 13.0882 1.79198 14.4391L5.02526 11.9367Z" fill="#FBBC05"/>
<path d="M10.6945 3.85339C12.5658 3.85339 13.8281 4.66171 14.5479 5.33721L17.3604 2.5911C15.6331 0.985527 13.3852 3.05176e-05 10.6945 3.05176e-05C6.79683 3.05176e-05 3.43065 2.23675 1.79187 5.49217L5.01408 7.99469C5.82248 5.59186 8.0592 3.85339 10.6945 3.85339Z" fill="#EB4335"/>
</g>
<defs>
<clipPath id="clip0_627_28">
<rect width="20" height="20" fill="white" transform="translate(0.5)"/>
</clipPath>
</defs>
</svg>
